<?xml version="1.0" encoding="utf-8"?>
<!-- Generator: Adobe Illustrator 27.8.1, SVG Export Plug-In . SVG Version: 6.00 Build 0)  -->
<svg version="1.1" id="Layer_1" xmlns="http://www.w3.org/2000/svg" xmlns:xlink="http://www.w3.org/1999/xlink"
	 viewBox="1882 1342 3236 2315" xml:space="preserve">
<style type="text/css">
	.st0{fill:#E5188A;}
</style>
<g id="Icon_00000068653046675302140000000017959249895213567395_">
	<g>
		<path class="st0" d="M4532,2058.4l-695.9,695.9l-590.4-590.4l695.9-695.9c163-163,427.4-163,590.4,0S4695,1895.4,4532,2058.4z"/>
		<path class="st0" d="M3751.7,2838.7l-695.9,695.9c-163,163-427.4,163-590.5,0c-81.5-81.5-122.3-188.4-122.3-295.2
			s40.8-213.7,122.3-295.2l695.9-695.9L3751.7,2838.7z"/>
	</g>
	<g>
		<path class="st0" d="M5117.9,3657.6H3383c44.8-439.6,416.1-782.6,867.5-782.6S5073.2,3218,5117.9,3657.6z"/>
		<path class="st0" d="M1882.1,1342.4h1735C3572.3,1782,3201,2125,2749.6,2125S1926.8,1782,1882.1,1342.4z"/>
	</g>
</g>
</svg>
